<svg width="84" height="84" viewBox="0 0 84 84" fill="none" xmlns="http://www.w3.org/2000/svg">
<g filter="url(#filter0_d_238_573)">
<path d="M68.9758 57.554L61.7758 22.754C61.6618 22.202 61.1698 21.8 60.5998 21.8H23.3998C22.8298 21.8 22.3378 22.202 22.2238 22.754L15.0238 57.554C14.9518 57.908 15.0418 58.274 15.2698 58.556C15.4978 58.838 15.8398 59 16.1998 59H67.7998C68.1598 59 68.5018 58.838 68.7298 58.556C68.9578 58.28 69.0478 57.908 68.9758 57.554ZM62.7238 39.2C62.7118 39.2 62.7058 39.2 62.6998 39.2H43.1998V24.2H59.6218L62.7238 39.2ZM24.3778 24.2H40.7998V39.2H21.2998C21.2878 39.2 21.2818 39.2 21.2758 39.2L24.3778 24.2ZM20.8018 41.486C20.9518 41.558 21.1198 41.6 21.2998 41.6H40.7998V56.6H17.6758L20.8018 41.486ZM43.1998 56.6V41.6H62.6998C62.8798 41.6 63.0478 41.558 63.1978 41.486L66.3238 56.6H43.1998ZM46.1998 11.6C47.8558 11.6 49.1998 12.944 49.1998 14.6C49.1998 15.26 49.7398 15.8 50.3998 15.8C51.0598 15.8 51.5998 15.26 51.5998 14.6C51.5998 12.944 52.9438 11.6 54.5998 11.6C55.2598 11.6 55.7998 11.06 55.7998 10.4C55.7998 9.74 55.2598 9.2 54.5998 9.2C52.9438 9.2 51.5998 7.856 51.5998 6.2C51.5998 5.54 51.0598 5 50.3998 5C49.7398 5 49.1998 5.54 49.1998 6.2C49.1998 7.856 47.8558 9.2 46.1998 9.2C45.5398 9.2 44.9998 9.74 44.9998 10.4C44.9998 11.06 45.5398 11.6 46.1998 11.6ZM50.3998 9.584C50.6398 9.884 50.9158 10.154 51.2158 10.4C50.9158 10.64 50.6458 10.916 50.3998 11.216C50.1598 10.916 49.8838 10.646 49.5838 10.4C49.8838 10.16 50.1598 9.884 50.3998 9.584ZM29.3998 14C31.0558 14 32.3998 15.344 32.3998 17C32.3998 17.66 32.9398 18.2 33.5998 18.2C34.2598 18.2 34.7998 17.66 34.7998 17C34.7998 15.344 36.1438 14 37.7998 14C38.4598 14 38.9998 13.46 38.9998 12.8C38.9998 12.14 38.4598 11.6 37.7998 11.6C36.1438 11.6 34.7998 10.256 34.7998 8.6C34.7998 7.94 34.2598 7.4 33.5998 7.4C32.9398 7.4 32.3998 7.94 32.3998 8.6C32.3998 10.256 31.0558 11.6 29.3998 11.6C28.7398 11.6 28.1998 12.14 28.1998 12.8C28.1998 13.46 28.7398 14 29.3998 14ZM33.5998 11.984C33.8398 12.284 34.1158 12.554 34.4158 12.8C34.1158 13.04 33.8458 13.316 33.5998 13.616C33.3598 13.316 33.0838 13.046 32.7838 12.8C33.0838 12.56 33.3598 12.284 33.5998 11.984Z" fill="white"/>
</g>
<defs>
<filter id="filter0_d_238_573" x="-3" y="-3" width="90" height="90" filterUnits="userSpaceOnUse" color-interpolation-filters="sRGB">
<feFlood flood-opacity="0" result="BackgroundImageFix"/>
<feColorMatrix in="SourceAlpha" type="matrix" values="0 0 0 0 0 0 0 0 0 0 0 0 0 0 0 0 0 0 127 0" result="hardAlpha"/>
<feOffset dy="10"/>
<feGaussianBlur stdDeviation="7.5"/>
<feComposite in2="hardAlpha" operator="out"/>
<feColorMatrix type="matrix" values="0 0 0 0 0 0 0 0 0 0 0 0 0 0 0 0 0 0 0.25 0"/>
<feBlend mode="normal" in2="BackgroundImageFix" result="effect1_dropShadow_238_573"/>
<feBlend mode="normal" in="SourceGraphic" in2="effect1_dropShadow_238_573" result="shape"/>
</filter>
</defs>
</svg>
