<svg width="50" height="60" viewBox="0 0 50 60" fill="none" xmlns="http://www.w3.org/2000/svg">
<path d="M42.6811 10.6125C42.7341 7.91001 41.7351 5.29262 39.8951 3.31262C38.055 1.33262 35.5177 0.144869 32.8186 2.72247e-06C31.0217 -0.00139312 29.2654 0.533994 27.7748 1.5375C25.8873 0.532022 23.7822 0.00414365 21.6436 2.72247e-06C18.6127 0.0985446 15.6895 1.14721 13.2871 2.99777C10.8848 4.84832 9.12481 7.40714 8.25606 10.3125C5.98779 10.9917 4.00855 12.4035 2.62782 14.327C1.24709 16.2505 0.542705 18.5774 0.624809 20.9438C0.495436 23.6981 1.45916 26.392 3.30625 28.4392C5.15333 30.4865 7.73426 31.7213 10.4873 31.875H16.1686L9.49356 44.0063C9.43434 44.109 9.40209 44.2251 9.39981 44.3438C9.38443 44.3857 9.37804 44.4304 9.38106 44.475L8.61231 52.1625V52.2375L7.97481 58.5938C7.9566 58.7753 7.99334 58.9582 8.08026 59.1187C8.16718 59.2791 8.30027 59.4098 8.46231 59.4938C8.62406 59.5788 8.80639 59.6168 8.98865 59.6035C9.1709 59.5903 9.34581 59.5263 9.49356 59.4188L14.5561 55.4625L20.6311 50.7C20.7883 50.6272 20.9145 50.501 20.9873 50.3438L31.1686 31.875H39.5123C42.2654 31.7213 44.8463 30.4865 46.6934 28.4392C48.5404 26.392 49.5042 23.6981 49.3748 20.9438C49.4317 18.7474 48.8228 16.5852 47.6281 14.7413C46.4334 12.8975 44.7089 11.4581 42.6811 10.6125ZM18.3248 31.875H22.5998L14.8748 45.9L11.5936 44.1L18.3248 31.875ZM10.0561 56.5875L10.3748 53.3175C11.2252 53.5287 12.0051 53.9601 12.6361 54.5681L10.0561 56.5875ZM14.1248 53.4L14.1061 53.415C13.1493 52.42 11.914 51.7376 10.5623 51.4575V51.4313L11.1061 45.9563L14.7436 47.9813C14.7623 47.9813 14.7623 48 14.7811 48C14.7998 48 14.7998 48.0188 14.8186 48.0188L18.4561 50.025L14.1248 53.4ZM19.8061 48.6188H19.7873L16.5248 46.8L24.7373 31.875H29.0123L19.8061 48.6188ZM39.5123 30H10.4873C8.23174 29.8462 6.12787 28.8089 4.63242 27.1134C3.13697 25.4178 2.37064 23.2009 2.49981 20.9438C2.41072 18.9403 3.00922 16.9666 4.19604 15.3501C5.38286 13.7336 7.08667 12.5713 9.02481 12.0563H9.06231C11 12.2029 12.8027 13.1043 14.0826 14.5666C15.3625 16.0288 16.0172 17.935 15.9061 19.875C15.9061 20.1236 16.0048 20.3621 16.1806 20.5379C16.3565 20.7137 16.5949 20.8125 16.8436 20.8125C17.0922 20.8125 17.3307 20.7137 17.5065 20.5379C17.6823 20.3621 17.7811 20.1236 17.7811 19.875C17.8633 17.6467 17.1531 15.4615 15.7765 13.7073C14.4 11.9532 12.4462 10.7437 10.2623 10.2938C11.0849 7.90377 12.6131 5.81955 14.6452 4.31643C16.6772 2.81331 19.1175 1.96202 21.6436 1.875C23.614 1.8745 25.5491 2.39871 27.2498 3.39375C27.2686 3.4125 27.2873 3.4125 27.3061 3.43125C28.207 4.06056 28.9695 4.86764 29.5467 5.80279C30.1239 6.73793 30.5036 7.78134 30.6623 8.86875C30.6811 8.9625 30.6811 9.0375 30.6998 9.13125C30.727 9.35672 30.8352 9.56464 31.0042 9.71638C31.1732 9.86811 31.3915 9.95335 31.6186 9.95625H31.7311C31.9782 9.92298 32.2026 9.7947 32.3566 9.59865C32.5106 9.40259 32.5822 9.15421 32.5561 8.90625C32.5589 8.87982 32.5522 8.85325 32.5373 8.83125C32.2666 6.49173 31.1615 4.32822 29.4248 2.7375C30.4676 2.17452 31.6335 1.87823 32.8186 1.875C34.9851 2.01481 37.016 2.9786 38.4944 4.56855C39.9727 6.1585 40.7865 8.25401 40.7686 10.425C39.6871 10.543 38.6442 10.8949 37.7123 11.4563C37.125 11.7771 36.5828 12.1743 36.0998 12.6375C35.309 13.3843 34.6498 14.2591 34.1498 15.225C34.0916 15.334 34.0561 15.4537 34.0455 15.5768C34.0348 15.6999 34.0492 15.8238 34.0877 15.9412C34.1263 16.0586 34.1882 16.167 34.2698 16.2598C34.3513 16.3526 34.4508 16.4279 34.5623 16.4813C34.6881 16.5531 34.83 16.5918 34.9748 16.5938C35.1485 16.5958 35.3194 16.5496 35.4684 16.4602C35.6174 16.3708 35.7386 16.2418 35.8186 16.0875C36.2296 15.2778 36.7894 14.5527 37.4686 13.95C37.925 13.5106 38.4508 13.1495 39.0248 12.8813C39.8109 12.4839 40.6755 12.2662 41.5561 12.2438C41.5748 12.225 41.5748 12.225 41.5936 12.2438C43.3764 12.8756 44.9109 14.0603 45.9733 15.6253C47.0357 17.1902 47.5705 19.0536 47.4998 20.9438C47.629 23.2009 46.8626 25.4178 45.3672 27.1134C43.8717 28.8089 41.7679 29.8462 39.5123 30ZM38.4811 19.8C38.5357 19.6455 38.5489 19.4793 38.5193 19.3181C38.4896 19.1569 38.4183 19.0063 38.3123 18.8813C38.2076 18.7467 38.0633 18.6483 37.8998 18.6C37.661 18.5255 37.4026 18.5464 37.1789 18.6582C36.9552 18.7701 36.7835 18.9643 36.6998 19.2C36.3431 20.2679 36.2029 21.3961 36.2873 22.5188C36.2873 22.5237 36.2853 22.5285 36.2818 22.532C36.2783 22.5355 36.2735 22.5375 36.2686 22.5375C36.2498 22.575 36.2498 22.5938 36.2311 22.6125L36.2873 22.575C36.343 23.6775 36.6441 24.7537 37.1686 25.725C37.247 25.8765 37.3653 26.0036 37.5107 26.0928C37.656 26.182 37.823 26.2299 37.9936 26.2313C38.1446 26.2318 38.2933 26.1931 38.4248 26.1188C38.5343 26.0634 38.6316 25.9866 38.7109 25.893C38.7903 25.7994 38.8501 25.6908 38.8868 25.5737C38.9235 25.4566 38.9363 25.3334 38.9246 25.2112C38.9129 25.0891 38.8769 24.9705 38.8186 24.8625C38.4249 24.0847 38.192 23.2355 38.134 22.3656C38.0761 21.4958 38.1941 20.6232 38.4811 19.8ZM14.1436 23.6625C13.3129 23.9275 12.4367 24.0193 11.5692 23.9322C10.7017 23.8452 9.86121 23.5811 9.09981 23.1563C8.99154 23.0969 8.8726 23.0594 8.74982 23.0462C8.62705 23.0329 8.50285 23.044 8.38438 23.0788C8.2659 23.1136 8.15548 23.1716 8.05945 23.2492C7.96342 23.3268 7.88368 23.4227 7.82481 23.5313C7.76613 23.6406 7.72975 23.7606 7.7178 23.8842C7.70585 24.0077 7.71856 24.1324 7.75519 24.2511C7.79182 24.3697 7.85164 24.4798 7.93119 24.5751C8.01073 24.6704 8.10841 24.749 8.21856 24.8063C9.45515 25.4812 10.841 25.8357 12.2498 25.8375C13.0904 25.838 13.9258 25.7051 14.7248 25.4438C14.8427 25.407 14.9521 25.3471 15.0465 25.2674C15.1408 25.1877 15.2182 25.0899 15.2742 24.9798C15.3301 24.8697 15.3634 24.7495 15.3721 24.6263C15.3808 24.5031 15.3647 24.3794 15.3248 24.2625C15.2476 24.0264 15.0798 23.8306 14.8583 23.7181C14.6368 23.6056 14.3798 23.5856 14.1436 23.6625ZM30.2498 21.8625C29.8033 21.4129 29.3063 21.0165 28.7686 20.6813C28.2131 20.3223 27.6226 20.0207 27.0061 19.7813C26.4378 19.5558 25.8469 19.3924 25.2436 19.2938C24.9112 19.2193 24.5717 19.1816 24.2311 19.1813C24.0924 19.1058 23.9364 19.0679 23.7786 19.0712C23.6207 19.0745 23.4665 19.1189 23.3311 19.2H23.3123C23.2641 19.1812 23.2105 19.1812 23.1623 19.2C22.1159 19.2775 21.0957 19.5644 20.1623 20.0438C19.9595 20.1658 19.8103 20.3601 19.7448 20.5875C19.6793 20.815 19.7022 21.0588 19.809 21.2701C19.9158 21.4813 20.0986 21.6443 20.3206 21.7264C20.5427 21.8085 20.7875 21.8035 21.0061 21.7125C21.3158 21.5462 21.6427 21.4141 21.9811 21.3188H21.9998C22.7332 21.0912 23.5026 21.0022 24.2686 21.0563C24.9765 21.1025 25.6726 21.2607 26.3311 21.525C26.873 21.7333 27.389 22.0039 27.8686 22.3313C28.3958 22.6868 28.8803 23.102 29.3123 23.5688C29.8584 24.1578 30.3191 24.8205 30.6811 25.5375C30.7584 25.6953 30.8785 25.8282 31.0276 25.921C31.1768 26.0138 31.3491 26.0629 31.5248 26.0625C31.6753 26.0585 31.8228 26.02 31.9561 25.95C32.065 25.894 32.1618 25.817 32.2407 25.7233C32.3196 25.6296 32.3791 25.5211 32.4157 25.4042C32.4524 25.2874 32.4654 25.1644 32.4541 25.0424C32.4428 24.9204 32.4073 24.8019 32.3498 24.6938C31.8241 23.6324 31.1129 22.6736 30.2498 21.8625ZM24.2498 8.025C24.4391 7.89541 24.5744 7.70088 24.6299 7.47827C24.6854 7.25566 24.6574 7.02042 24.5511 6.81709C24.4448 6.61376 24.2676 6.45647 24.0532 6.37499C23.8387 6.29352 23.6018 6.29352 23.3873 6.375C22.6095 6.76881 21.7603 7.00168 20.8905 7.05967C20.0206 7.11766 19.148 6.99958 18.3248 6.7125C18.2079 6.67114 18.0839 6.65339 17.9601 6.66027C17.8363 6.66715 17.7151 6.69853 17.6035 6.75259C17.4918 6.80665 17.3921 6.88232 17.3099 6.97521C17.2277 7.06811 17.1648 7.17638 17.1248 7.29375C17.0522 7.53256 17.074 7.79011 17.1856 8.01336C17.2972 8.23661 17.4902 8.40854 17.7248 8.49375C18.6203 8.78904 19.5569 8.94091 20.4998 8.94375C21.8064 8.95138 23.0947 8.63576 24.2498 8.025Z" fill="white"/>
</svg>
