<svg width="80" height="90" viewBox="0 0 80 90" fill="none" xmlns="http://www.w3.org/2000/svg">
<g clip-path="url(#clip0_238_569)" filter="url(#filter0_d_238_569)">
<path d="M57.6811 15.6125C57.7341 12.91 56.7351 10.2926 54.895 8.31262C53.055 6.33262 50.5177 5.14487 47.8186 5C46.0217 4.99861 44.2654 5.53399 42.7748 6.5375C40.8873 5.53202 38.7822 5.00414 36.6436 5C33.6127 5.09854 30.6895 6.14721 28.2871 7.99777C25.8848 9.84832 24.1248 12.4071 23.2561 15.3125C20.9878 15.9917 19.0086 17.4035 17.6278 19.327C16.2471 21.2505 15.5427 23.5774 15.6248 25.9438C15.4954 28.6981 16.4592 31.392 18.3062 33.4392C20.1533 35.4865 22.7343 36.7213 25.4873 36.875H31.1686L24.4936 49.0063C24.4343 49.109 24.4021 49.2251 24.3998 49.3438C24.3844 49.3857 24.378 49.4304 24.3811 49.475L23.6123 57.1625V57.2375L22.9748 63.5938C22.9566 63.7753 22.9933 63.9582 23.0803 64.1187C23.1672 64.2791 23.3003 64.4098 23.4623 64.4938C23.6241 64.5788 23.8064 64.6168 23.9886 64.6035C24.1709 64.5903 24.3458 64.5263 24.4936 64.4188L29.5561 60.4625L35.6311 55.7C35.7883 55.6272 35.9145 55.501 35.9873 55.3438L46.1686 36.875H54.5123C57.2654 36.7213 59.8463 35.4865 61.6934 33.4392C63.5404 31.392 64.5042 28.6981 64.3748 25.9438C64.4317 23.7474 63.8228 21.5852 62.6281 19.7413C61.4334 17.8975 59.7089 16.4581 57.6811 15.6125V15.6125ZM33.3248 36.875H37.5998L29.8748 50.9L26.5936 49.1L33.3248 36.875ZM25.0561 61.5875L25.3748 58.3175C26.2252 58.5287 27.0051 58.9601 27.6361 59.5681L25.0561 61.5875ZM29.1248 58.4L29.1061 58.415C28.1493 57.42 26.914 56.7376 25.5623 56.4575V56.4313L26.1061 50.9563L29.7436 52.9813C29.7623 52.9813 29.7623 53 29.7811 53C29.7998 53 29.7998 53.0188 29.8186 53.0188L33.4561 55.025L29.1248 58.4ZM34.8061 53.6188H34.7873L31.5248 51.8L39.7373 36.875H44.0123L34.8061 53.6188ZM54.5123 35H25.4873C23.2317 34.8462 21.1279 33.8089 19.6324 32.1134C18.137 30.4178 17.3706 28.2009 17.4998 25.9438C17.4107 23.9403 18.0092 21.9666 19.196 20.3501C20.3829 18.7336 22.0867 17.5713 24.0248 17.0563H24.0623C26 17.2029 27.8027 18.1043 29.0826 19.5666C30.3625 21.0288 31.0172 22.935 30.9061 24.875C30.9061 25.1236 31.0048 25.3621 31.1806 25.5379C31.3565 25.7137 31.5949 25.8125 31.8436 25.8125C32.0922 25.8125 32.3307 25.7137 32.5065 25.5379C32.6823 25.3621 32.7811 25.1236 32.7811 24.875C32.8633 22.6467 32.1531 20.4615 30.7765 18.7073C29.4 16.9532 27.4462 15.7437 25.2623 15.2938C26.0849 12.9038 27.6131 10.8196 29.6452 9.31643C31.6772 7.81331 34.1175 6.96202 36.6436 6.875C38.614 6.8745 40.5491 7.39871 42.2498 8.39375C42.2686 8.4125 42.2873 8.4125 42.3061 8.43125C43.207 9.06056 43.9695 9.86764 44.5467 10.8028C45.1239 11.7379 45.5036 12.7813 45.6623 13.8688C45.6811 13.9625 45.6811 14.0375 45.6998 14.1313C45.727 14.3567 45.8352 14.5646 46.0042 14.7164C46.1732 14.8681 46.3915 14.9533 46.6186 14.9563H46.7311C46.9782 14.923 47.2026 14.7947 47.3566 14.5986C47.5106 14.4026 47.5822 14.1542 47.5561 13.9063C47.5589 13.8798 47.5522 13.8533 47.5373 13.8313C47.2666 11.4917 46.1615 9.32822 44.4248 7.7375C45.4676 7.17452 46.6335 6.87823 47.8186 6.875C49.9851 7.01481 52.016 7.9786 53.4944 9.56855C54.9727 11.1585 55.7865 13.254 55.7686 15.425C54.6871 15.543 53.6442 15.8949 52.7123 16.4563C52.125 16.7771 51.5828 17.1743 51.0998 17.6375C50.309 18.3843 49.6498 19.2591 49.1498 20.225C49.0916 20.334 49.0561 20.4537 49.0455 20.5768C49.0348 20.6999 49.0492 20.8238 49.0877 20.9412C49.1263 21.0586 49.1882 21.167 49.2698 21.2598C49.3513 21.3526 49.4508 21.4279 49.5623 21.4813C49.6881 21.5531 49.83 21.5918 49.9748 21.5938C50.1485 21.5958 50.3194 21.5496 50.4684 21.4602C50.6174 21.3708 50.7386 21.2418 50.8186 21.0875C51.2296 20.2778 51.7894 19.5527 52.4686 18.95C52.925 18.5106 53.4508 18.1495 54.0248 17.8813C54.8109 17.4839 55.6755 17.2662 56.5561 17.2438C56.5748 17.225 56.5748 17.225 56.5936 17.2438C58.3764 17.8756 59.9109 19.0603 60.9733 20.6253C62.0357 22.1902 62.5705 24.0536 62.4998 25.9438C62.629 28.2009 61.8626 30.4178 60.3672 32.1134C58.8717 33.8089 56.7679 34.8462 54.5123 35V35ZM53.4811 24.8C53.5357 24.6455 53.5489 24.4793 53.5193 24.3181C53.4896 24.1569 53.4183 24.0063 53.3123 23.8813C53.2076 23.7467 53.0633 23.6483 52.8998 23.6C52.661 23.5255 52.4026 23.5464 52.1789 23.6582C51.9552 23.7701 51.7835 23.9643 51.6998 24.2C51.3431 25.2679 51.2029 26.3961 51.2873 27.5188C51.2873 27.5237 51.2853 27.5285 51.2818 27.532C51.2783 27.5355 51.2735 27.5375 51.2686 27.5375C51.2498 27.575 51.2498 27.5938 51.2311 27.6125L51.2873 27.575C51.343 28.6775 51.6441 29.7537 52.1686 30.725C52.247 30.8765 52.3653 31.0036 52.5107 31.0928C52.656 31.182 52.823 31.2299 52.9936 31.2313C53.1446 31.2318 53.2933 31.1931 53.4248 31.1188C53.5343 31.0634 53.6316 30.9866 53.7109 30.893C53.7903 30.7994 53.8501 30.6908 53.8868 30.5737C53.9235 30.4566 53.9363 30.3334 53.9246 30.2112C53.9129 30.0891 53.8768 29.9705 53.8186 29.8625C53.4249 29.0847 53.192 28.2355 53.134 27.3656C53.0761 26.4958 53.1941 25.6232 53.4811 24.8V24.8ZM29.1436 28.6625C28.3129 28.9275 27.4367 29.0193 26.5692 28.9322C25.7017 28.8452 24.8612 28.5811 24.0998 28.1563C23.9915 28.0969 23.8726 28.0594 23.7498 28.0461C23.627 28.0329 23.5029 28.044 23.3844 28.0788C23.2659 28.1136 23.1555 28.1716 23.0595 28.2492C22.9634 28.3268 22.8837 28.4227 22.8248 28.5313C22.7661 28.6406 22.7298 28.7606 22.7178 28.8842C22.7059 29.0077 22.7186 29.1324 22.7552 29.2511C22.7918 29.3697 22.8516 29.4798 22.9312 29.5751C23.0107 29.6704 23.1084 29.749 23.2186 29.8063C24.4551 30.4812 25.841 30.8357 27.2498 30.8375C28.0904 30.838 28.9258 30.7051 29.7248 30.4438C29.8427 30.407 29.9521 30.3471 30.0465 30.2674C30.1408 30.1877 30.2182 30.0899 30.2742 29.9798C30.3301 29.8697 30.3634 29.7495 30.3721 29.6263C30.3808 29.5031 30.3647 29.3794 30.3248 29.2625C30.2476 29.0264 30.0798 28.8306 29.8583 28.7181C29.6368 28.6056 29.3798 28.5856 29.1436 28.6625V28.6625ZM45.2498 26.8625C44.8033 26.4129 44.3063 26.0165 43.7686 25.6813C43.2131 25.3223 42.6226 25.0207 42.0061 24.7813C41.4378 24.5558 40.8469 24.3924 40.2436 24.2938C39.9112 24.2193 39.5717 24.1816 39.2311 24.1813C39.0924 24.1058 38.9364 24.0679 38.7786 24.0712C38.6207 24.0745 38.4665 24.1189 38.3311 24.2H38.3123C38.2641 24.1812 38.2105 24.1812 38.1623 24.2C37.1159 24.2775 36.0957 24.5644 35.1623 25.0438C34.9595 25.1658 34.8103 25.3601 34.7448 25.5875C34.6793 25.815 34.7022 26.0588 34.809 26.2701C34.9158 26.4813 35.0986 26.6443 35.3206 26.7264C35.5427 26.8085 35.7875 26.8035 36.0061 26.7125C36.3158 26.5462 36.6427 26.4141 36.9811 26.3188H36.9998C37.7332 26.0912 38.5026 26.0022 39.2686 26.0563C39.9765 26.1025 40.6726 26.2607 41.3311 26.525C41.873 26.7333 42.389 27.0039 42.8686 27.3313C43.3958 27.6868 43.8803 28.102 44.3123 28.5688C44.8584 29.1578 45.3191 29.8205 45.6811 30.5375C45.7584 30.6953 45.8785 30.8282 46.0276 30.921C46.1768 31.0138 46.3491 31.0629 46.5248 31.0625C46.6753 31.0585 46.8228 31.02 46.9561 30.95C47.065 30.894 47.1618 30.817 47.2407 30.7233C47.3196 30.6296 47.3791 30.5211 47.4157 30.4042C47.4524 30.2874 47.4654 30.1644 47.4541 30.0424C47.4428 29.9204 47.4073 29.8019 47.3498 29.6938C46.8241 28.6324 46.1129 27.6736 45.2498 26.8625V26.8625ZM39.2498 13.025C39.4391 12.8954 39.5744 12.7009 39.6299 12.4783C39.6854 12.2557 39.6574 12.0204 39.5511 11.8171C39.4448 11.6138 39.2676 11.4565 39.0532 11.375C38.8387 11.2935 38.6018 11.2935 38.3873 11.375C37.6095 11.7688 36.7603 12.0017 35.8905 12.0597C35.0206 12.1177 34.148 11.9996 33.3248 11.7125C33.2079 11.6711 33.0839 11.6534 32.9601 11.6603C32.8363 11.6672 32.7151 11.6985 32.6035 11.7526C32.4918 11.8067 32.3921 11.8823 32.3099 11.9752C32.2277 12.0681 32.1648 12.1764 32.1248 12.2938C32.0522 12.5326 32.074 12.7901 32.1856 13.0134C32.2972 13.2366 32.4902 13.4085 32.7248 13.4938C33.6203 13.789 34.5569 13.9409 35.4998 13.9438C36.8064 13.9514 38.0947 13.6358 39.2498 13.025V13.025Z" fill="white"/>
</g>
<defs>
<filter id="filter0_d_238_569" x="-5" y="0" width="90" height="90" filterUnits="userSpaceOnUse" color-interpolation-filters="sRGB">
<feFlood flood-opacity="0" result="BackgroundImageFix"/>
<feColorMatrix in="SourceAlpha" type="matrix" values="0 0 0 0 0 0 0 0 0 0 0 0 0 0 0 0 0 0 127 0" result="hardAlpha"/>
<feOffset dy="10"/>
<feGaussianBlur stdDeviation="7.5"/>
<feComposite in2="hardAlpha" operator="out"/>
<feColorMatrix type="matrix" values="0 0 0 0 0 0 0 0 0 0 0 0 0 0 0 0 0 0 0.25 0"/>
<feBlend mode="normal" in2="BackgroundImageFix" result="effect1_dropShadow_238_569"/>
<feBlend mode="normal" in="SourceGraphic" in2="effect1_dropShadow_238_569" result="shape"/>
</filter>
<clipPath id="clip0_238_569">
<rect width="60" height="60" fill="white" transform="translate(10 5)"/>
</clipPath>
</defs>
</svg>
