<svg width="88" height="90" viewBox="0 0 88 90" fill="none" xmlns="http://www.w3.org/2000/svg">
<g filter="url(#filter0_d_238_558)">
<path d="M68.9281 5H19.0728C17.2249 5 15.7212 6.50281 15.7212 8.35062V58.2069C15.7212 60.0547 17.2249 61.5556 19.0718 61.5556H20.6946V64.0916C20.6946 64.5931 21.1015 65 21.604 65H29.5193C30.0218 65 30.4287 64.5931 30.4287 64.0916V61.5556H57.5693V64.0916C57.5693 64.5931 57.9762 65 58.4787 65H66.394C66.8956 65 67.3024 64.5931 67.3024 64.0916V61.5556H68.9262C70.774 61.5556 72.2768 60.0538 72.2768 58.2069V8.35062C72.2787 6.50281 70.7759 5 68.9281 5ZM19.0728 6.81687H68.9281C69.7718 6.81687 70.4609 7.505 70.4609 8.35062V17.4341H17.5399V8.35062C17.5399 7.50594 18.2271 6.81687 19.0728 6.81687ZM28.6109 63.1822H22.5143V61.5566H28.6118V63.1822H28.6109ZM65.4856 63.1822H59.3881V61.5566H65.4856V63.1822ZM68.9281 59.7378H19.0728C18.2281 59.7378 17.5399 59.0516 17.5399 58.2069V19.2528H70.4609V58.2069C70.4609 59.0506 69.7718 59.7378 68.9281 59.7378Z" fill="white"/>
<path d="M58.4796 15.7832C60.4953 15.7832 62.1359 14.1426 62.1359 12.127C62.1359 10.1113 60.4953 8.4707 58.4796 8.4707C56.4631 8.4707 54.8225 10.1113 54.8225 12.127C54.8225 14.1426 56.4631 15.7832 58.4796 15.7832ZM58.4796 10.2885C59.4921 10.2885 60.3181 11.1135 60.3181 12.127C60.3181 13.1404 59.4921 13.9654 58.4796 13.9654C57.4653 13.9654 56.6412 13.1404 56.6412 12.127C56.6412 11.1135 57.4662 10.2885 58.4796 10.2885ZM44 15.7832C46.0156 15.7832 47.6553 14.1426 47.6553 12.127C47.6553 10.1113 46.0156 8.4707 44 8.4707C41.9843 8.4707 40.3437 10.1113 40.3437 12.127C40.3437 14.1426 41.9843 15.7832 44 15.7832ZM44 10.2885C45.0125 10.2885 45.8375 11.1135 45.8375 12.127C45.8375 13.1404 45.0134 13.9654 44 13.9654C42.9865 13.9654 42.1615 13.1404 42.1615 12.127C42.1615 11.1135 42.9865 10.2885 44 10.2885ZM29.5203 15.7832C31.5368 15.7832 33.1756 14.1426 33.1756 12.127C33.1756 10.1113 31.5368 8.4707 29.5203 8.4707C27.5046 8.4707 25.864 10.1113 25.864 12.127C25.864 14.1426 27.5046 15.7832 29.5203 15.7832ZM29.5203 10.2885C30.5337 10.2885 31.3587 11.1135 31.3587 12.127C31.3587 13.1404 30.5337 13.9654 29.5203 13.9654C28.5068 13.9654 27.6818 13.1404 27.6818 12.127C27.6818 11.1135 28.5068 10.2885 29.5203 10.2885ZM63.86 30.7391H24.1428C23.6403 30.7391 23.2334 31.147 23.2334 31.6485V53.7791C23.2334 54.2816 23.6403 54.6885 24.1428 54.6885H63.86C64.3634 54.6885 64.7703 54.2816 64.7703 53.7791V31.6485C64.7693 31.147 64.3634 30.7391 63.86 30.7391ZM62.9515 52.8707H25.0521V32.5579H62.9515V52.8707Z" fill="white"/>
</g>
<defs>
<filter id="filter0_d_238_558" x="-1" y="0" width="90" height="90" filterUnits="userSpaceOnUse" color-interpolation-filters="sRGB">
<feFlood flood-opacity="0" result="BackgroundImageFix"/>
<feColorMatrix in="SourceAlpha" type="matrix" values="0 0 0 0 0 0 0 0 0 0 0 0 0 0 0 0 0 0 127 0" result="hardAlpha"/>
<feOffset dy="10"/>
<feGaussianBlur stdDeviation="7.5"/>
<feComposite in2="hardAlpha" operator="out"/>
<feColorMatrix type="matrix" values="0 0 0 0 0 0 0 0 0 0 0 0 0 0 0 0 0 0 0.25 0"/>
<feBlend mode="normal" in2="BackgroundImageFix" result="effect1_dropShadow_238_558"/>
<feBlend mode="normal" in="SourceGraphic" in2="effect1_dropShadow_238_558" result="shape"/>
</filter>
</defs>
</svg>
