<svg width="58" height="60" viewBox="0 0 58 60" fill="none" xmlns="http://www.w3.org/2000/svg">
<path d="M52.4774 -115.357C51.959 -115.357 51.5399 -115.777 51.5399 -116.294V-120.838H8.45712V-116.294C8.45712 -115.777 8.03806 -115.357 7.51962 -115.357C7.00119 -115.357 6.58212 -115.777 6.58212 -116.294V-132.584C6.58212 -135.34 8.8237 -137.584 11.5781 -137.584H48.4143C51.1706 -137.584 53.414 -135.34 53.414 -132.584V-116.294C53.4149 -115.777 52.995 -115.357 52.4774 -115.357ZM8.45712 -122.713H51.539V-132.584C51.539 -134.307 50.1375 -135.709 48.4143 -135.709H11.579C9.85779 -135.709 8.45807 -134.307 8.45807 -132.584V-122.713H8.45712ZM56.249 -137.769H3.75089C3.23245 -137.769 2.81339 -138.189 2.81339 -138.706C2.81339 -139.224 3.23245 -139.644 3.75089 -139.644H56.249C56.7674 -139.644 57.1865 -139.224 57.1865 -138.706C57.1865 -138.189 56.7674 -137.769 56.249 -137.769ZM-338.934 -31.1045C-339.452 -31.1045 -339.872 -31.5245 -339.872 -32.042V-40.726H-350.594V-32.042C-350.594 -31.5245 -351.014 -31.1045 -351.532 -31.1045C-352.049 -31.1045 -352.469 -31.5245 -352.469 -32.042V-45.7726H-354.209C-354.727 -45.7726 -355.147 -46.1926 -355.147 -46.7101C-355.147 -47.2276 -354.727 -47.6476 -354.209 -47.6476H-339.773L-338.438 -59.672V-65.4582C-338.438 -65.9757 -338.018 -66.3957 -337.5 -66.3957C-336.983 -66.3957 -336.563 -65.9757 -336.563 -65.4582V-59.6335C-336.563 -59.611 -336.563 -59.5885 -336.563 -59.566C-336.564 -59.5454 -336.566 -59.5239 -336.569 -59.5032L-337.996 -46.6585V-32.042C-337.997 -31.5235 -338.417 -31.1045 -338.934 -31.1045ZM-350.594 -42.6001H-339.872V-45.7726H-350.594V-42.6001ZM-363.751 -31.1045C-363.779 -31.1045 -363.807 -31.1054 -363.834 -31.1082H-370.047C-370.565 -31.1082 -370.985 -31.5282 -370.985 -32.0457C-370.985 -32.5632 -370.565 -32.9832 -370.047 -32.9832H-364.688V-54.3854H-379.903C-380.421 -54.3854 -380.841 -54.8054 -380.841 -55.3229C-380.841 -55.8404 -380.421 -56.2604 -379.903 -56.2604H-347.594C-347.077 -56.2604 -346.657 -55.8404 -346.657 -55.3229C-346.657 -54.8054 -347.077 -54.3854 -347.594 -54.3854H-362.813V-32.9832H-357.452C-356.934 -32.9832 -356.514 -32.5632 -356.514 -32.0457C-356.514 -31.5282 -356.934 -31.1082 -357.452 -31.1082H-363.667C-363.695 -31.1054 -363.723 -31.1045 -363.751 -31.1045ZM-375.97 -31.1045C-376.488 -31.1045 -376.908 -31.5245 -376.908 -32.042V-40.726H-387.628V-32.042C-387.628 -31.5245 -388.048 -31.1045 -388.566 -31.1045C-389.083 -31.1045 -389.503 -31.5245 -389.503 -32.042V-46.6585L-390.93 -59.5032C-390.933 -59.5248 -390.935 -59.5473 -390.936 -59.5698C-390.937 -59.5904 -390.938 -59.612 -390.938 -59.6335V-65.4582C-390.938 -65.9757 -390.518 -66.3957 -390 -66.3957C-389.483 -66.3957 -389.063 -65.9757 -389.063 -65.4582V-59.672L-387.727 -47.6476H-373.293C-372.775 -47.6476 -372.355 -47.2276 -372.355 -46.7101C-372.355 -46.1926 -372.775 -45.7726 -373.293 -45.7726H-375.033V-32.042C-375.033 -31.5235 -375.452 -31.1045 -375.97 -31.1045ZM-387.628 -42.6001H-376.908V-45.7726H-387.628V-42.6001ZM-262.52 -35.4348C-263.037 -35.4348 -263.457 -35.8548 -263.457 -36.3723V-38.9523H-285.001C-285.519 -38.9523 -285.938 -39.3714 -285.938 -39.8898V-57.8457H-306.544V-36.3723C-306.544 -35.8548 -306.964 -35.4348 -307.481 -35.4348C-308 -35.4348 -308.419 -35.8548 -308.419 -36.3723V-57.8457H-311.25C-311.768 -57.8457 -312.188 -58.2657 -312.188 -58.7832V-61.1279C-312.188 -61.6454 -311.768 -62.0654 -311.25 -62.0654H-258.75C-258.233 -62.0654 -257.813 -61.6454 -257.813 -61.1279V-58.7832C-257.813 -58.2657 -258.233 -57.8457 -258.75 -57.8457H-261.582V-36.3723C-261.582 -35.8548 -262.001 -35.4348 -262.52 -35.4348ZM-284.063 -40.8273H-263.457V-48.3976H-284.063V-40.8273ZM-284.063 -50.2726H-263.457V-57.8457H-284.063V-50.2726ZM-262.52 -59.7207H-259.688V-60.1904H-310.313V-59.7207H-262.52ZM-272.532 -43.6745H-274.981C-275.499 -43.6745 -275.918 -44.0945 -275.918 -44.612C-275.918 -45.1304 -275.499 -45.5495 -274.981 -45.5495H-272.532C-272.015 -45.5495 -271.595 -45.1304 -271.595 -44.612C-271.595 -44.0945 -272.015 -43.6745 -272.532 -43.6745ZM-272.532 -53.1236H-274.981C-275.499 -53.1236 -275.918 -53.5435 -275.918 -54.0611C-275.918 -54.5795 -275.499 -54.9986 -274.981 -54.9986H-272.532C-272.015 -54.9986 -271.595 -54.5795 -271.595 -54.0611C-271.595 -53.5435 -272.015 -53.1236 -272.532 -53.1236ZM-183.77 -35.4348C-184.287 -35.4348 -184.707 -35.8548 -184.707 -36.3723V-48.3976H-227.794V-36.3723C-227.794 -35.8548 -228.214 -35.4348 -228.731 -35.4348C-229.249 -35.4348 -229.669 -35.8548 -229.669 -36.3723V-57.8457H-232.5C-233.018 -57.8457 -233.438 -58.2657 -233.438 -58.7832V-61.1279C-233.438 -61.6454 -233.018 -62.0654 -232.5 -62.0654H-180C-179.483 -62.0654 -179.063 -61.6454 -179.063 -61.1279V-58.7832C-179.063 -58.2657 -179.483 -57.8457 -180 -57.8457H-182.832V-36.3723C-182.832 -35.8548 -183.251 -35.4348 -183.77 -35.4348ZM-205.313 -50.2726H-184.707V-57.8457H-205.313V-50.2726ZM-227.793 -50.2726H-207.188V-57.8457H-227.793V-50.2726ZM-183.77 -59.7207H-180.938V-60.1904H-231.563V-59.7207H-183.77ZM-193.782 -53.1236H-196.231C-196.748 -53.1236 -197.168 -53.5435 -197.168 -54.0611C-197.168 -54.5785 -196.748 -54.9986 -196.231 -54.9986H-193.782C-193.265 -54.9986 -192.845 -54.5785 -192.845 -54.0611C-192.845 -53.5435 -193.265 -53.1236 -193.782 -53.1236ZM-216.265 -53.2679H-218.716C-219.233 -53.2679 -219.653 -53.6879 -219.653 -54.2054C-219.653 -54.7229 -219.233 -55.1429 -218.716 -55.1429H-216.265C-215.748 -55.1429 -215.328 -54.7229 -215.328 -54.2054C-215.328 -53.6879 -215.747 -53.2679 -216.265 -53.2679ZM-116.691 -21.5626C-117.209 -21.5626 -117.628 -21.9826 -117.628 -22.5001V-25.3323H-137.375V-22.5001C-137.375 -21.9826 -137.794 -21.5626 -138.312 -21.5626C-138.831 -21.5626 -139.25 -21.9826 -139.25 -22.5001V-40.201H-142.669C-143.187 -40.201 -143.606 -40.621 -143.606 -41.1385C-143.561 -42.9414 -142.135 -44.3307 -140.357 -44.3307H-139.013L-139.005 -64.8517C-138.758 -71.0842 -133.705 -75.9376 -127.502 -75.9376C-121.295 -75.9376 -116.242 -71.0842 -115.998 -64.8882L-115.987 -44.3307H-114.641C-112.892 -44.3307 -111.434 -42.9104 -111.392 -41.1657C-111.392 -41.1582 -111.392 -41.1507 -111.392 -41.1432V-41.1385C-111.392 -40.621 -111.811 -40.201 -112.329 -40.201H-115.751V-22.5001C-115.753 -21.9826 -116.172 -21.5626 -116.691 -21.5626ZM-137.375 -27.2073H-117.628V-32.7676H-137.375V-27.2073ZM-137.375 -34.6417H-117.628V-40.201H-137.375V-34.6417ZM-116.691 -42.076H-113.697C-113.945 -42.3104 -114.278 -42.4557 -114.643 -42.4557H-140.359C-140.723 -42.4557 -141.056 -42.3104 -141.305 -42.076H-116.691ZM-137.138 -44.3307H-117.862L-117.872 -64.8507C-118.075 -70.0004 -122.305 -74.0626 -127.501 -74.0626C-132.694 -74.0626 -136.925 -70.0004 -137.131 -64.8142L-137.138 -44.3307ZM-126.323 -29.0467H-128.677C-129.195 -29.0467 -129.614 -29.4667 -129.614 -29.9842C-129.614 -30.5017 -129.195 -30.9217 -128.677 -30.9217H-126.323C-125.804 -30.9217 -125.385 -30.5017 -125.385 -29.9842C-125.385 -29.4667 -125.804 -29.0467 -126.323 -29.0467ZM-126.323 -36.4857H-128.677C-129.195 -36.4857 -129.614 -36.9057 -129.614 -37.4232C-129.614 -37.9407 -129.195 -38.3607 -128.677 -38.3607H-126.323C-125.804 -38.3607 -125.385 -37.9407 -125.385 -37.4232C-125.385 -36.9057 -125.804 -36.4857 -126.323 -36.4857ZM-132.816 -52.9426C-133.056 -52.9426 -133.296 -53.0345 -133.478 -53.2173C-133.845 -53.5839 -133.845 -54.1764 -133.478 -54.5429L-122.846 -65.1751C-122.48 -65.5417 -121.887 -65.5417 -121.521 -65.1751C-121.154 -64.8085 -121.154 -64.216 -121.521 -63.8495L-132.153 -53.2173C-132.336 -53.0335 -132.576 -52.9426 -132.816 -52.9426ZM-128.184 -53.5989C-128.424 -53.5989 -128.664 -53.6907 -128.847 -53.8735C-129.214 -54.2401 -129.214 -54.8335 -128.847 -55.2001L-123.503 -60.542C-123.136 -60.9076 -122.543 -60.9076 -122.177 -60.542C-121.81 -60.1764 -121.81 -59.582 -122.177 -59.2154L-127.522 -53.8735C-127.705 -53.6907 -127.945 -53.5989 -128.184 -53.5989ZM-132.159 -57.5757C-132.399 -57.5757 -132.639 -57.6676 -132.822 -57.8504C-133.189 -58.216 -133.189 -58.8095 -132.822 -59.176L-127.482 -64.5179C-127.116 -64.8845 -126.523 -64.8845 -126.157 -64.5179C-125.79 -64.1523 -125.79 -63.5589 -126.157 -63.1923L-131.497 -57.8504C-131.679 -57.6676 -131.919 -57.5757 -132.159 -57.5757ZM-61.6435 -21.5626C-61.7672 -21.5626 -61.8938 -21.587 -62.0147 -21.6395C-62.49 -21.8457 -62.7075 -22.3979 -62.5031 -22.8723L-61.8263 -24.4351H-63.316C-63.8344 -24.4351 -64.2535 -24.8551 -64.2535 -25.3726V-45.4107C-64.2535 -45.9573 -63.7622 -46.3867 -63.2325 -46.3445H-55.3725V-57.3629H-63.316C-63.5907 -57.3629 -63.8504 -57.4829 -64.0294 -57.692C-64.2066 -57.901 -64.2844 -58.1767 -64.2422 -58.4476L-61.6003 -75.1473C-61.5282 -75.6029 -61.1353 -75.9376 -60.6741 -75.9376H-48.2063C-47.745 -75.9376 -47.3531 -75.6029 -47.281 -75.1473L-44.6335 -58.4476C-44.5904 -58.1767 -44.6682 -57.9001 -44.8463 -57.691C-45.0244 -57.482 -45.285 -57.362 -45.5597 -57.362H-47.6523V-52.9042C-47.6523 -52.3867 -48.0713 -51.9667 -48.5898 -51.9667C-49.1082 -51.9667 -49.5273 -52.3867 -49.5273 -52.9042V-57.362H-53.4985V-46.3435H-34.2675C-33.7369 -46.3857 -33.2466 -45.9564 -33.2466 -45.4098V-25.3717C-33.2466 -24.8542 -33.6657 -24.4342 -34.1841 -24.4342H-35.6353L-34.9576 -22.8723C-34.7504 -22.397 -34.9697 -21.8448 -35.4441 -21.6395C-35.9203 -21.4342 -36.4726 -21.6517 -36.6769 -22.127L-37.6791 -24.4351H-59.7826L-60.781 -22.1279C-60.9347 -21.7745 -61.2807 -21.5626 -61.6435 -21.5626ZM-37.0435 -26.3101H-35.1216V-34.4523H-62.3785V-26.3101H-60.42C-60.405 -26.311 -60.3919 -26.311 -60.3769 -26.3101H-37.0857C-37.0716 -26.311 -37.0566 -26.311 -37.0435 -26.3101ZM-62.3785 -36.3273H-35.1216V-44.4704H-62.3785V-36.3273ZM-48.5888 -59.2389H-46.6557L-49.006 -74.0626H-59.8726L-62.2182 -59.2379H-48.5888V-59.2389ZM-47.1647 -29.4395H-50.34C-50.8585 -29.4395 -51.2775 -29.8595 -51.2775 -30.377C-51.2775 -30.8954 -50.8585 -31.3145 -50.34 -31.3145H-47.1647C-46.6463 -31.3145 -46.2272 -30.8954 -46.2272 -30.377C-46.2272 -29.8604 -46.6463 -29.4395 -47.1647 -29.4395ZM-47.1647 -39.4651H-50.34C-50.8585 -39.4651 -51.2775 -39.8851 -51.2775 -40.4026C-51.2775 -40.921 -50.8585 -41.3401 -50.34 -41.3401H-47.1647C-46.6463 -41.3401 -46.2272 -40.921 -46.2272 -40.4026C-46.2272 -39.8851 -46.6463 -39.4651 -47.1647 -39.4651ZM54.7781 -37.4907C54.4153 -37.4907 54.0703 -37.7026 53.9174 -38.056L53.0399 -40.0782H30.0018C30 -40.0782 29.9999 -40.0782 29.998 -40.0782H6.99557L6.12183 -38.056C5.9165 -37.5826 5.36621 -37.3623 4.88995 -37.5676C4.41464 -37.7729 4.1962 -38.3251 4.40152 -38.8004L4.9537 -40.0773H3.75089C3.23245 -40.0773 2.81339 -40.4973 2.81339 -41.0148V-59.0692C2.81339 -59.6073 3.2962 -60.0367 3.80994 -60.0048H29.9399C29.9596 -60.0067 29.9821 -60.0123 29.9999 -60.0067C30.0234 -60.0123 30.0403 -60.0067 30.0599 -60.0048H56.1899C56.7 -60.0367 57.1865 -59.6073 57.1865 -59.0692V-41.0148C57.1865 -40.4973 56.7674 -40.0773 56.249 -40.0773H55.0837L55.6368 -38.8014C55.8431 -38.326 55.6246 -37.7739 55.1493 -37.5685C55.0284 -37.516 54.9018 -37.4907 54.7781 -37.4907ZM53.6756 -41.9523H55.3115V-49.1054H30.9393V-41.9523H53.6343C53.6474 -41.9532 53.6624 -41.9532 53.6756 -41.9523ZM6.40027 -41.9523H29.0605V-49.1054H4.68839V-41.9523H6.35901C6.37119 -41.9532 6.3862 -41.9532 6.40027 -41.9523ZM30.9393 -50.9804H55.3115V-58.1298H30.9393V-50.9804ZM4.68839 -50.9804H29.0605V-58.1298H4.68839V-50.9804ZM44.5556 -44.5904H41.6943C41.1759 -44.5904 40.7568 -45.0104 40.7568 -45.5279C40.7568 -46.0454 41.1759 -46.4654 41.6943 -46.4654H44.5556C45.074 -46.4654 45.4931 -46.0454 45.4931 -45.5279C45.4931 -45.0104 45.074 -44.5904 44.5556 -44.5904ZM18.3009 -44.5904H15.4406C14.9221 -44.5904 14.5031 -45.0104 14.5031 -45.5279C14.5031 -46.0454 14.9221 -46.4654 15.4406 -46.4654H18.3018C18.8203 -46.4654 19.2393 -46.0454 19.2393 -45.5279C19.2393 -45.0104 18.8193 -44.5904 18.3009 -44.5904ZM44.5556 -53.6185H41.6943C41.1759 -53.6185 40.7568 -54.0385 40.7568 -54.556C40.7568 -55.0735 41.1759 -55.4935 41.6943 -55.4935H44.5556C45.074 -55.4935 45.4931 -55.0735 45.4931 -54.556C45.4931 -54.0385 45.074 -53.6185 44.5556 -53.6185ZM18.3009 -53.6185H15.4406C14.9221 -53.6185 14.5031 -54.0385 14.5031 -54.556C14.5031 -55.0735 14.9221 -55.4935 15.4406 -55.4935H18.3018C18.8203 -55.4935 19.2393 -55.0735 19.2393 -54.556C19.2393 -54.0385 18.8193 -53.6185 18.3009 -53.6185ZM-388.49 41.2565C-388.614 41.2565 -388.741 41.2321 -388.862 41.1796C-389.337 40.9733 -389.556 40.4211 -389.349 39.9468L-388.797 38.6708H-390C-390.518 38.6708 -390.938 38.2518 -390.938 37.7333V19.6799C-390.938 19.1615 -390.518 18.7424 -390 18.7424H-363.751C-363.748 18.7424 -363.748 18.7424 -363.747 18.7424H-337.5C-336.983 18.7424 -336.563 19.1615 -336.563 19.6799V37.7324C-336.563 38.2508 -336.983 38.6699 -337.5 38.6699H-338.665L-338.112 39.9449C-337.906 40.4202 -338.124 40.9724 -338.6 41.1777C-339.073 41.3858 -339.626 41.1665 -339.833 40.6911L-340.71 38.669H-363.747C-363.748 38.668 -363.748 38.668 -363.751 38.669H-386.753L-387.629 40.6902C-387.782 41.0446 -388.127 41.2565 -388.49 41.2565ZM-340.073 36.7949H-338.438V20.6174H-362.81V36.7949H-340.116C-340.102 36.7949 -340.088 36.7949 -340.073 36.7949ZM-387.348 36.7949H-364.688V29.6436H-389.063V36.7949H-387.39C-387.376 36.7949 -387.362 36.7949 -387.348 36.7949ZM-389.063 27.7686H-364.688V20.6174H-389.063V27.7686ZM-375.445 34.1577H-378.307C-378.824 34.1577 -379.244 33.7386 -379.244 33.2202C-379.244 32.7018 -378.824 32.2827 -378.307 32.2827H-375.445C-374.928 32.2827 -374.508 32.7018 -374.508 33.2202C-374.508 33.7386 -374.928 34.1577 -375.445 34.1577ZM-360.829 31.0715C-361.346 31.0715 -361.766 30.6524 -361.766 30.134V27.2718C-361.766 26.7533 -361.346 26.3343 -360.829 26.3343C-360.311 26.3343 -359.891 26.7533 -359.891 27.2718V30.134C-359.891 30.6515 -360.311 31.0715 -360.829 31.0715ZM-375.445 25.1268H-378.307C-378.824 25.1268 -379.244 24.7077 -379.244 24.1893C-379.244 23.6708 -378.824 23.2518 -378.307 23.2518H-375.445C-374.928 23.2518 -374.508 23.6708 -374.508 24.1893C-374.508 24.7077 -374.928 25.1268 -375.445 25.1268ZM-261.344 45.1096C-261.862 45.1096 -262.282 44.6905 -262.282 44.1721V43.844H-284.996C-284.997 43.844 -284.997 43.844 -285 43.844H-307.681V44.1721C-307.681 44.6905 -308.101 45.1096 -308.618 45.1096C-309.136 45.1096 -309.556 44.6905 -309.556 44.1721V43.844H-311.166C-311.703 43.903 -312.187 43.4568 -312.187 42.9102V15.8277C-312.187 15.3093 -311.767 14.8902 -311.249 14.8902H-258.749C-258.232 14.8902 -257.812 15.3093 -257.812 15.8277C-257.812 15.8558 -257.813 15.884 -257.815 15.9111V24.7715C-257.813 24.7986 -257.812 24.8268 -257.812 24.8549V42.9074C-257.812 43.4258 -258.232 43.8449 -258.749 43.8449H-260.406V44.173C-260.407 44.6905 -260.827 45.1096 -261.344 45.1096ZM-284.06 41.9699H-259.688V34.8177H-284.06V41.9699ZM-310.313 41.9699H-285.938V34.8177H-310.313V41.9699ZM-284.06 32.9427H-259.688V24.9383C-259.689 24.9111 -259.691 24.883 -259.691 24.8549V16.7652H-284.06V32.9427ZM-310.313 32.9427H-285.935V16.7652H-310.313V32.9427ZM-270.443 39.3346H-273.304C-273.821 39.3346 -274.241 38.9155 -274.241 38.3971C-274.241 37.8786 -273.821 37.4596 -273.304 37.4596H-270.443C-269.925 37.4596 -269.505 37.8786 -269.505 38.3971C-269.505 38.9155 -269.925 39.3346 -270.443 39.3346ZM-296.695 39.3346H-299.557C-300.074 39.3346 -300.494 38.9155 -300.494 38.3971C-300.494 37.8786 -300.074 37.4596 -299.557 37.4596H-296.695C-296.178 37.4596 -295.758 37.8786 -295.758 38.3971C-295.758 38.9155 -296.178 39.3346 -296.695 39.3346ZM-261.527 27.2183C-262.044 27.2183 -262.464 26.7993 -262.464 26.2808V23.4224C-262.464 22.9039 -262.044 22.4849 -261.527 22.4849C-261.009 22.4849 -260.589 22.9039 -260.589 23.4224V26.2808C-260.589 26.7993 -261.009 27.2183 -261.527 27.2183ZM-308.49 27.2183C-309.008 27.2183 -309.428 26.7993 -309.428 26.2808V23.4224C-309.428 22.9039 -309.008 22.4849 -308.49 22.4849C-307.973 22.4849 -307.553 22.9039 -307.553 23.4224V26.2808C-307.553 26.7993 -307.972 27.2183 -308.49 27.2183ZM-182.594 49.9433C-183.112 49.9433 -183.532 49.5243 -183.532 49.0058V48.673H-206.246C-206.247 48.673 -206.247 48.673 -206.25 48.673H-228.931V49.0058C-228.931 49.5243 -229.351 49.9433 -229.868 49.9433C-230.386 49.9433 -230.806 49.5243 -230.806 49.0058V48.673H-232.416C-232.95 48.734 -233.437 48.2858 -233.437 47.7393V38.7093C-233.437 38.1908 -233.017 37.7718 -232.499 37.7718H-228.668V35.3671H-232.5C-233.018 35.3671 -233.438 34.948 -233.438 34.4296C-233.438 33.9111 -233.018 33.4921 -232.5 33.4921H-210.056L-209.424 31.4408H-223.081C-223.598 31.4408 -224.018 31.0218 -224.018 30.5033V10.994C-224.018 10.4755 -223.598 10.0565 -223.081 10.0565H-189.419C-188.902 10.0565 -188.482 10.4755 -188.482 10.994V30.5043C-188.482 31.0227 -188.902 31.4418 -189.419 31.4418H-203.078L-202.446 33.493H-180C-179.483 33.493 -179.063 33.9121 -179.063 34.4305C-179.063 34.949 -179.483 35.368 -180 35.368H-183.831V37.7727H-180C-179.483 37.7727 -179.063 38.1918 -179.063 38.7102V47.7365C-179.063 48.2549 -179.483 48.674 -180 48.674H-181.657V49.0068C-181.657 49.5243 -182.077 49.9433 -182.594 49.9433ZM-205.313 46.798H-180.938V39.6468H-205.313V46.798ZM-231.563 46.798H-207.188V39.6468H-231.563V46.798ZM-226.793 37.7718H-185.706V35.3671H-203.116C-203.129 35.368 -203.143 35.368 -203.159 35.3671H-209.341C-209.356 35.368 -209.37 35.368 -209.384 35.3671H-226.793V37.7718H-226.793ZM-208.094 33.4921H-204.408L-205.04 31.4408H-207.462L-208.094 33.4921ZM-204.325 29.5658H-190.357V11.9315H-222.143V29.5668H-208.177C-208.161 29.5677 -208.147 29.5677 -208.133 29.5668H-204.368C-204.354 29.5668 -204.339 29.5668 -204.325 29.5658ZM-191.693 44.1637H-194.554C-195.071 44.1637 -195.491 43.7446 -195.491 43.2262C-195.491 42.7077 -195.071 42.2887 -194.554 42.2887H-191.693C-191.175 42.2887 -190.755 42.7077 -190.755 43.2262C-190.755 43.7446 -191.175 44.1637 -191.693 44.1637ZM-217.945 44.1637H-220.807C-221.324 44.1637 -221.744 43.7446 -221.744 43.2262C-221.744 42.7077 -221.324 42.2887 -220.807 42.2887H-217.945C-217.428 42.2887 -217.008 42.7077 -217.008 43.2262C-217.008 43.7446 -217.428 44.1637 -217.945 44.1637ZM-118.749 42.4977C-119.268 42.4977 -119.687 42.0786 -119.687 41.5602V39.6449H-135.318V41.5602C-135.318 42.0786 -135.737 42.4977 -136.255 42.4977C-136.774 42.4977 -137.193 42.0786 -137.193 41.5602V39.6449H-152.812V41.5377C-152.812 42.0562 -153.231 42.4752 -153.749 42.4752C-154.268 42.4752 -154.687 42.0562 -154.687 41.5377V18.4396C-154.687 17.9212 -154.268 17.5021 -153.749 17.5021H-101.251C-100.733 17.5021 -100.313 17.9212 -100.313 18.4396V41.534C-100.313 42.0524 -100.733 42.4715 -101.251 42.4715C-101.769 42.4715 -102.188 42.0524 -102.188 41.534V39.6449H-117.812V41.5602C-117.812 42.0786 -118.231 42.4977 -118.749 42.4977ZM-117.812 37.7699H-102.188V25.0649H-117.812V37.7699ZM-135.318 37.7699H-119.687V22.2533H-135.318V37.7699ZM-152.812 37.7699H-137.193V25.0649H-152.812V37.7699ZM-117.812 23.1899H-102.188V19.3771H-117.812V23.1899ZM-152.812 23.1899H-137.193V19.3771H-152.812V23.1899ZM-135.318 20.3783H-119.687V19.3771H-135.318V20.3783ZM-116.651 33.2783C-117.17 33.2783 -117.589 32.8593 -117.589 32.3408V30.494C-117.589 29.9755 -117.17 29.5565 -116.651 29.5565C-116.133 29.5565 -115.714 29.9755 -115.714 30.494V32.3408C-115.714 32.8593 -116.133 33.2783 -116.651 33.2783ZM-138.353 33.2783C-138.871 33.2783 -139.29 32.8593 -139.29 32.3408V30.494C-139.29 29.9755 -138.871 29.5565 -138.353 29.5565C-137.834 29.5565 -137.415 29.9755 -137.415 30.494V32.3408C-137.415 32.8593 -137.834 33.2783 -138.353 33.2783ZM-109.044 22.0124H-110.951C-111.47 22.0124 -111.889 21.5933 -111.889 21.0749C-111.889 20.5565 -111.47 20.1374 -110.951 20.1374H-109.044C-108.526 20.1374 -108.107 20.5565 -108.107 21.0749C-108.107 21.5933 -108.527 22.0124 -109.044 22.0124ZM-144.048 22.0124H-145.951C-146.469 22.0124 -146.888 21.5933 -146.888 21.0749C-146.888 20.5565 -146.469 20.1374 -145.951 20.1374H-144.048C-143.529 20.1374 -143.11 20.5565 -143.11 21.0749C-143.11 21.5933 -143.53 22.0124 -144.048 22.0124ZM-36.031 57.1864H-61.4738C-61.9922 57.1864 -62.4113 56.7674 -62.4113 56.2489V21.2502C-62.4113 21.2483 -62.4113 21.2483 -62.4113 21.2465V3.75084C-62.4113 3.23241 -61.9922 2.81334 -61.4738 2.81334H-36.0273C-35.5088 2.81334 -35.0898 3.23241 -35.0898 3.75084C-35.0898 3.77896 -35.0907 3.80708 -35.0935 3.83426V21.1705C-35.0907 21.1977 -35.0898 21.2258 -35.0898 21.254C-35.0898 21.2821 -35.0907 21.3102 -35.0935 21.3374V38.6699C-35.0907 38.6971 -35.0898 38.7252 -35.0898 38.7533C-35.0898 38.7815 -35.0907 38.8096 -35.0935 38.8368V56.2489C-35.0935 56.7674 -35.5125 57.1864 -36.031 57.1864ZM-60.5353 55.3114H-36.9676V39.6908H-60.5353V55.3114ZM-60.5353 37.8121H-36.9676V22.1915H-60.5353V37.8121ZM-60.5353 20.309H-36.9676V4.68834H-60.5353V20.309ZM-58.7991 49.8271C-59.3175 49.8271 -59.7366 49.408 -59.7366 48.8896V46.1165C-59.7366 45.598 -59.3175 45.179 -58.7991 45.179C-58.2807 45.179 -57.8616 45.598 -57.8616 46.1165V48.8896C-57.8616 49.408 -58.2807 49.8271 -58.7991 49.8271ZM-58.7991 32.324C-59.3175 32.324 -59.7366 31.9049 -59.7366 31.3865V28.6171C-59.7366 28.0986 -59.3175 27.6796 -58.7991 27.6796C-58.2807 27.6796 -57.8616 28.0986 -57.8616 28.6171V31.3865C-57.8616 31.9049 -58.2807 32.324 -58.7991 32.324ZM-58.7991 14.8218C-59.3175 14.8218 -59.7366 14.4027 -59.7366 13.8843V11.1149C-59.7366 10.5965 -59.3175 10.1774 -58.7991 10.1774C-58.2807 10.1774 -57.8616 10.5965 -57.8616 11.1149V13.8843C-57.8616 14.4018 -58.2807 14.8218 -58.7991 14.8218ZM55.4446 57.1864H30.0018C30 57.1864 29.9999 57.1864 29.998 57.1864H4.55527C4.03683 57.1864 3.61777 56.7674 3.61777 56.2489V3.75084C3.61777 3.23241 4.03683 2.81334 4.55527 2.81334H55.4437C55.9622 2.81334 56.3812 3.23241 56.3812 3.75084V21.2465C56.3812 21.2483 56.3812 21.2483 56.3812 21.2502V56.2489C56.3821 56.7674 55.9621 57.1864 55.4446 57.1864ZM30.9393 55.3114H54.5071V21.2502C54.5071 21.2483 54.5071 21.2483 54.5071 21.2465V4.68834H30.9393V21.2465C30.9393 21.2483 30.9393 21.2483 30.9393 21.2502V55.3114ZM5.49277 55.3114H29.0605V39.6871H5.49277V55.3114ZM5.49277 37.8121H29.0605V21.2502C29.0605 21.2483 29.0605 21.2483 29.0605 21.2465V4.68834H5.49277V37.8121ZM27.0374 49.8271C26.519 49.8271 26.0999 49.408 26.0999 48.8896V46.1165C26.0999 45.598 26.519 45.179 27.0374 45.179C27.5559 45.179 27.9749 45.598 27.9749 46.1165V48.8896C27.9749 49.408 27.5559 49.8271 27.0374 49.8271ZM32.9625 32.324C32.444 32.324 32.025 31.9049 32.025 31.3865V28.6171C32.025 28.0986 32.444 27.6796 32.9625 27.6796C33.4809 27.6796 33.9 28.0986 33.9 28.6171V31.3865C33.9 31.9049 33.4809 32.324 32.9625 32.324ZM27.0374 32.324C26.519 32.324 26.0999 31.9049 26.0999 31.3865V28.6171C26.0999 28.0986 26.519 27.6796 27.0374 27.6796C27.5559 27.6796 27.9749 28.0986 27.9749 28.6171V31.3865C27.9749 31.9049 27.5559 32.324 27.0374 32.324ZM-338.304 135.936H-363.747C-363.749 135.936 -363.749 135.936 -363.751 135.936H-389.196C-389.713 135.936 -390.133 135.517 -390.133 134.999V82.5008C-390.133 81.9824 -389.713 81.5633 -389.196 81.5633H-338.305C-337.788 81.5633 -337.368 81.9824 -337.368 82.5008V99.9965C-337.368 99.9983 -337.368 99.9983 -337.368 100V134.999C-337.367 135.517 -337.788 135.936 -338.304 135.936ZM-362.81 134.061H-339.242V100C-339.242 99.9983 -339.242 99.9983 -339.242 99.9965V83.4383H-362.81V99.9965C-362.81 99.9983 -362.81 99.9983 -362.81 100V134.061ZM-388.258 134.061H-364.688V100C-364.688 99.9983 -364.688 99.9983 -364.688 99.9965V83.4383H-388.258V134.061ZM-351.028 127.12C-355.422 127.12 -358.997 123.546 -358.997 119.152V98.3493C-358.997 93.9552 -355.422 90.3805 -351.028 90.3805C-346.633 90.3805 -343.056 93.9552 -343.056 98.3493L-343.059 119.152C-343.059 123.546 -346.634 127.12 -351.028 127.12ZM-351.028 92.2546C-354.388 92.2546 -357.122 94.9883 -357.122 98.3483V119.151C-357.122 122.511 -354.388 125.244 -351.028 125.244C-347.668 125.244 -344.934 122.511 -344.934 119.151L-344.931 98.3483C-344.931 94.9883 -347.666 92.2546 -351.028 92.2546ZM-360.787 111.074C-361.305 111.074 -361.724 110.655 -361.724 110.136V107.367C-361.724 106.849 -361.305 106.43 -360.787 106.43C-360.269 106.43 -359.849 106.849 -359.849 107.367V110.136C-359.849 110.655 -360.269 111.074 -360.787 111.074ZM-366.712 111.074C-367.229 111.074 -367.649 110.655 -367.649 110.136V107.367C-367.649 106.849 -367.229 106.43 -366.712 106.43C-366.193 106.43 -365.774 106.849 -365.774 107.367V110.136C-365.774 110.655 -366.193 111.074 -366.712 111.074ZM-179.066 95.0061C-179.066 94.4877 -179.486 94.0686 -180.004 94.0686C-180.522 94.0686 -180.941 94.4877 -180.941 95.0061V105.265H-181.005C-181.094 103.206 -182.784 101.556 -184.867 101.556H-189.162C-191.243 101.556 -192.932 103.206 -193.02 105.265H-227.556C-229.101 105.265 -230.509 105.864 -231.56 106.842V102.429C-231.56 101.911 -231.979 101.492 -232.497 101.492C-233.015 101.492 -233.435 101.911 -233.435 102.429L-233.438 121.128C-233.438 121.629 -233.045 122.038 -232.551 122.065V122.494C-232.551 123.012 -232.132 123.431 -231.613 123.431C-231.096 123.431 -230.676 123.012 -230.676 122.494V122.065H-181.827V122.494C-181.827 123.012 -181.407 123.431 -180.89 123.431C-180.371 123.431 -179.952 123.012 -179.952 122.494V122.065C-179.457 122.04 -179.063 121.629 -179.063 121.128L-179.066 95.0061ZM-189.162 103.431H-184.867C-183.821 103.431 -182.961 104.234 -182.872 105.254H-191.153C-191.065 104.235 -190.207 103.431 -189.162 103.431ZM-227.557 107.14H-180.941V110.207H-231.452C-231.029 108.45 -229.443 107.14 -227.557 107.14ZM-231.563 120.19V112.083H-180.939L-180.938 120.19H-231.563ZM-100.317 114.494C-100.317 113.976 -100.737 113.556 -101.255 113.556H-121.876V104.894C-121.876 104.376 -122.295 103.956 -122.813 103.956H-132.189C-132.708 103.956 -133.127 104.376 -133.127 104.894V113.556H-137.422C-136.894 111.895 -138.491 104.873 -137.994 103.542C-137.887 103.254 -137.927 102.933 -138.102 102.68C-138.278 102.426 -138.564 102.276 -138.872 102.276H-140.136V99.0749H-135.134C-134.861 99.0749 -134.603 98.9558 -134.424 98.7496C-134.246 98.5434 -134.167 98.2696 -134.207 97.9996L-135.977 86.0333C-136.044 85.574 -136.439 85.2327 -136.904 85.2327H-145.243C-145.708 85.2327 -146.103 85.573 -146.17 86.0333L-147.937 97.9996C-147.976 98.2696 -147.897 98.5434 -147.719 98.7496C-147.542 98.9558 -147.282 99.0749 -147.009 99.0749H-142.012V102.276H-143.275C-143.583 102.276 -143.871 102.426 -144.045 102.68C-144.221 102.933 -144.261 103.254 -144.153 103.542C-143.656 104.874 -145.251 111.895 -144.724 113.556H-153.749C-154.268 113.556 -154.687 113.976 -154.687 114.494V129.962C-154.687 130.461 -154.295 130.871 -153.802 130.897V131.328C-153.802 131.846 -153.383 132.265 -152.864 132.265C-152.346 132.265 -151.927 131.846 -151.927 131.328V130.899H-103.078V131.328C-103.078 131.846 -102.659 132.265 -102.141 132.265C-101.622 132.265 -101.203 131.846 -101.203 131.328V130.898C-100.973 130.886 -100.753 130.79 -100.589 130.625C-100.413 130.448 -100.314 130.21 -100.314 129.962L-100.317 114.494ZM-131.252 105.831H-123.751V113.556H-131.252V105.831ZM-145.923 97.2008L-144.433 87.1096H-137.713L-136.221 97.2008H-145.923ZM-142.09 104.152H-140.055C-140.239 105.64 -138.713 112.337 -139.465 113.556H-142.679C-143.43 112.338 -141.907 105.641 -142.09 104.152ZM-128.443 129.024H-152.812V115.431H-128.443V129.024ZM-126.568 129.024V115.431H-102.192L-102.188 129.024H-126.568Z" fill="white"/>
</svg>
