<svg width="40" height="60" viewBox="0 0 40 60" fill="none" xmlns="http://www.w3.org/2000/svg">
<path d="M38.6653 40.9019C38.9044 40.9019 39.1338 40.8058 39.303 40.6348C39.4721 40.4637 39.5671 40.2318 39.5671 39.9899C39.5671 28.1455 32.19 20.3871 20.6884 20.0041V0.912039C20.6884 0.670151 20.5934 0.43817 20.4243 0.26713C20.2551 0.0960895 20.0257 0 19.7866 0C19.5474 0 19.318 0.0960895 19.1489 0.26713C18.9797 0.43817 18.8847 0.670151 18.8847 0.912039V20.0041C7.37712 20.3871 0 28.1455 0 39.9899C0 40.2318 0.0950159 40.4637 0.264145 40.6348C0.433275 40.8058 0.662664 40.9019 0.901849 40.9019H12.6559C12.9174 42.6392 13.7741 44.2284 15.0763 45.392C16.3785 46.5556 18.0435 47.2195 19.7806 47.2679C21.5186 47.2209 23.1851 46.5576 24.4885 45.3939C25.792 44.2302 26.6495 42.6402 26.9112 40.9019H38.6653ZM19.7806 21.8099C28.27 21.8099 37.3305 26.3701 37.7454 39.0778H1.8037C2.23057 26.3701 11.2911 21.8099 19.7806 21.8099ZM19.7806 45.4439C18.5225 45.3951 17.317 44.9211 16.3567 44.0977C15.3965 43.2743 14.737 42.1491 14.4837 40.9019H25.0834C24.8299 42.15 24.1695 43.276 23.208 44.0995C22.2466 44.923 21.0396 45.3964 19.7806 45.4439V45.4439ZM39.6453 51.9984L34.0478 47.6814C33.8572 47.5347 33.6169 47.4705 33.3795 47.503C33.1422 47.5355 32.9273 47.662 32.7822 47.8547C32.6371 48.0474 32.5736 48.2905 32.6058 48.5305C32.6379 48.7705 32.763 48.9878 32.9536 49.1346L38.551 53.4516C38.7416 53.5983 38.982 53.6625 39.2193 53.63C39.3368 53.6139 39.4501 53.5746 39.5526 53.5142C39.655 53.4539 39.7448 53.3737 39.8166 53.2783C39.8885 53.1829 39.941 53.0741 39.9713 52.9581C40.0016 52.8421 40.009 52.7213 39.9931 52.6024C39.9772 52.4836 39.9382 52.3691 39.8786 52.2654C39.8189 52.1618 39.7396 52.071 39.6453 51.9984V51.9984ZM6.98031 47.6084L1.53916 52.12C1.42859 52.1883 1.33388 52.2799 1.26146 52.3885C1.18904 52.4971 1.14061 52.6203 1.11947 52.7495C1.09834 52.8788 1.10499 53.0111 1.13897 53.1376C1.17296 53.264 1.23348 53.3815 1.31642 53.4822C1.39936 53.5829 1.50277 53.6643 1.61961 53.7209C1.73645 53.7775 1.86397 53.8079 1.99351 53.8102C2.12304 53.8125 2.25154 53.7865 2.37026 53.7341C2.48898 53.6817 2.59514 53.6039 2.6815 53.5063L8.12866 49.0008C8.22418 48.9263 8.30394 48.8331 8.36322 48.7269C8.4225 48.6206 8.4601 48.5034 8.47379 48.3822C8.48748 48.261 8.47699 48.1382 8.44292 48.0212C8.40886 47.9042 8.35193 47.7952 8.27549 47.7008C8.19906 47.6065 8.10467 47.5285 7.99792 47.4717C7.89118 47.4149 7.77424 47.3803 7.65403 47.3699C7.53383 47.3596 7.4128 47.3738 7.29811 47.4116C7.18341 47.4495 7.07739 47.5102 6.98632 47.5902L6.98031 47.6084ZM20.0451 51.8099C19.8059 51.8099 19.5765 51.906 19.4074 52.077C19.2383 52.2481 19.1432 52.48 19.1432 52.7219V59.088C19.1432 59.3299 19.2383 59.5618 19.4074 59.7329C19.5765 59.9039 19.8059 60 20.0451 60C20.2843 60 20.5137 59.9039 20.6828 59.7329C20.8519 59.5618 20.9469 59.3299 20.9469 59.088V52.7219C20.9469 52.48 20.8519 52.2481 20.6828 52.077C20.5137 51.906 20.2843 51.8099 20.0451 51.8099V51.8099Z" fill="white"/>
</svg>
