<svg width="54" height="54" viewBox="0 0 54 54" fill="none" xmlns="http://www.w3.org/2000/svg">
<path d="M53.9758 52.554L46.7758 17.754C46.6618 17.202 46.1698 16.8 45.5998 16.8H8.39978C7.82978 16.8 7.33778 17.202 7.22378 17.754L0.0237818 52.554C-0.0482182 52.908 0.0417817 53.274 0.269782 53.556C0.497782 53.838 0.839782 54 1.19978 54H52.7998C53.1598 54 53.5018 53.838 53.7298 53.556C53.9578 53.28 54.0478 52.908 53.9758 52.554ZM47.7238 34.2C47.7118 34.2 47.7058 34.2 47.6998 34.2H28.1998V19.2H44.6218L47.7238 34.2ZM9.37778 19.2H25.7998V34.2H6.29978C6.28778 34.2 6.28178 34.2 6.27578 34.2L9.37778 19.2ZM5.80178 36.486C5.95178 36.558 6.11978 36.6 6.29978 36.6H25.7998V51.6H2.67578L5.80178 36.486ZM28.1998 51.6V36.6H47.6998C47.8798 36.6 48.0478 36.558 48.1978 36.486L51.3238 51.6H28.1998ZM31.1998 6.6C32.8558 6.6 34.1998 7.944 34.1998 9.6C34.1998 10.26 34.7398 10.8 35.3998 10.8C36.0598 10.8 36.5998 10.26 36.5998 9.6C36.5998 7.944 37.9438 6.6 39.5998 6.6C40.2598 6.6 40.7998 6.06 40.7998 5.4C40.7998 4.74 40.2598 4.2 39.5998 4.2C37.9438 4.2 36.5998 2.856 36.5998 1.2C36.5998 0.54 36.0598 0 35.3998 0C34.7398 0 34.1998 0.54 34.1998 1.2C34.1998 2.856 32.8558 4.2 31.1998 4.2C30.5398 4.2 29.9998 4.74 29.9998 5.4C29.9998 6.06 30.5398 6.6 31.1998 6.6ZM35.3998 4.584C35.6398 4.884 35.9158 5.154 36.2158 5.4C35.9158 5.64 35.6458 5.916 35.3998 6.216C35.1598 5.916 34.8838 5.646 34.5838 5.4C34.8838 5.16 35.1598 4.884 35.3998 4.584ZM14.3998 9C16.0558 9 17.3998 10.344 17.3998 12C17.3998 12.66 17.9398 13.2 18.5998 13.2C19.2598 13.2 19.7998 12.66 19.7998 12C19.7998 10.344 21.1438 9 22.7998 9C23.4598 9 23.9998 8.46 23.9998 7.8C23.9998 7.14 23.4598 6.6 22.7998 6.6C21.1438 6.6 19.7998 5.256 19.7998 3.6C19.7998 2.94 19.2598 2.4 18.5998 2.4C17.9398 2.4 17.3998 2.94 17.3998 3.6C17.3998 5.256 16.0558 6.6 14.3998 6.6C13.7398 6.6 13.1998 7.14 13.1998 7.8C13.1998 8.46 13.7398 9 14.3998 9ZM18.5998 6.984C18.8398 7.284 19.1158 7.554 19.4158 7.8C19.1158 8.04 18.8458 8.316 18.5998 8.616C18.3598 8.316 18.0838 8.046 17.7838 7.8C18.0838 7.56 18.3598 7.284 18.5998 6.984Z" fill="white"/>
</svg>
